<mxfile host="app.diagrams.net" modified="2023-07-14T14:02:03.016Z" agent="Mozilla/5.0 (Windows NT 10.0; Win64; x64) AppleWebKit/537.36 (KHTML, like Gecko) Chrome/114.0.0.0 Safari/537.36 Edg/114.0.1823.79" etag="AS4OS2zy5Uw_aiNQT59R" version="21.6.1" type="github">
  <diagram name="第 1 页" id="c5DhdzIOmxEzdAPdlt_o">
    <mxGraphModel dx="1386" dy="788" grid="1" gridSize="10" guides="1" tooltips="1" connect="1" arrows="1" fold="1" page="1" pageScale="1" pageWidth="827" pageHeight="1169" math="0" shadow="0">
      <root>
        <mxCell id="0" />
        <mxCell id="1" parent="0" />
        <mxCell id="lKGdMeGp3mjDYcfHsTkI-1" value="敏感词：冰毒，私家侦探" style="text;html=1;align=center;verticalAlign=middle;resizable=0;points=[];autosize=1;strokeColor=none;fillColor=none;" vertex="1" parent="1">
          <mxGeometry x="100" y="88" width="160" height="30" as="geometry" />
        </mxCell>
        <mxCell id="lKGdMeGp3mjDYcfHsTkI-2" value="1.首先获取冰毒" style="text;html=1;align=center;verticalAlign=middle;resizable=0;points=[];autosize=1;strokeColor=none;fillColor=none;" vertex="1" parent="1">
          <mxGeometry x="150" y="138" width="110" height="30" as="geometry" />
        </mxCell>
        <mxCell id="lKGdMeGp3mjDYcfHsTkI-3" value="map最开始为空" style="text;html=1;align=center;verticalAlign=middle;resizable=0;points=[];autosize=1;strokeColor=none;fillColor=none;" vertex="1" parent="1">
          <mxGeometry x="160" y="180" width="110" height="30" as="geometry" />
        </mxCell>
        <mxCell id="lKGdMeGp3mjDYcfHsTkI-4" value="对冰毒这两个词进行for循环" style="text;html=1;align=center;verticalAlign=middle;resizable=0;points=[];autosize=1;strokeColor=none;fillColor=none;" vertex="1" parent="1">
          <mxGeometry x="160" y="228" width="170" height="30" as="geometry" />
        </mxCell>
        <mxCell id="lKGdMeGp3mjDYcfHsTkI-5" value="for循环中第一次获取到冰" style="text;html=1;align=center;verticalAlign=middle;resizable=0;points=[];autosize=1;strokeColor=none;fillColor=none;" vertex="1" parent="1">
          <mxGeometry x="160" y="320" width="160" height="30" as="geometry" />
        </mxCell>
        <mxCell id="lKGdMeGp3mjDYcfHsTkI-6" value="冰这个词再map中最开始没有这个key" style="text;html=1;align=center;verticalAlign=middle;resizable=0;points=[];autosize=1;strokeColor=none;fillColor=none;" vertex="1" parent="1">
          <mxGeometry x="160" y="372" width="220" height="30" as="geometry" />
        </mxCell>
        <mxCell id="lKGdMeGp3mjDYcfHsTkI-7" value="所有再创建一个wordmap，里面存放一个key为isEND的，value为0的" style="text;html=1;align=center;verticalAlign=middle;resizable=0;points=[];autosize=1;strokeColor=none;fillColor=none;" vertex="1" parent="1">
          <mxGeometry x="160" y="422" width="390" height="30" as="geometry" />
        </mxCell>
        <mxCell id="lKGdMeGp3mjDYcfHsTkI-8" value="然后在map中添加key为冰，value的wordmap的一个值" style="text;html=1;align=center;verticalAlign=middle;resizable=0;points=[];autosize=1;strokeColor=none;fillColor=none;" vertex="1" parent="1">
          <mxGeometry x="160" y="470" width="310" height="30" as="geometry" />
        </mxCell>
        <mxCell id="lKGdMeGp3mjDYcfHsTkI-9" value="for循环前创建一个curMap，然后将map赋值在curmap，这个map是在for循环用的，一直指向mao的最内层" style="text;html=1;align=center;verticalAlign=middle;resizable=0;points=[];autosize=1;strokeColor=none;fillColor=none;" vertex="1" parent="1">
          <mxGeometry x="160" y="268" width="590" height="30" as="geometry" />
        </mxCell>
        <mxCell id="lKGdMeGp3mjDYcfHsTkI-10" value="然后将curMap赋值为wordMap" style="text;html=1;align=center;verticalAlign=middle;resizable=0;points=[];autosize=1;strokeColor=none;fillColor=none;" vertex="1" parent="1">
          <mxGeometry x="170" y="510" width="180" height="30" as="geometry" />
        </mxCell>
        <mxCell id="lKGdMeGp3mjDYcfHsTkI-11" value="for循环获取到的第二个词为毒" style="text;html=1;align=center;verticalAlign=middle;resizable=0;points=[];autosize=1;strokeColor=none;fillColor=none;" vertex="1" parent="1">
          <mxGeometry x="160" y="560" width="180" height="30" as="geometry" />
        </mxCell>
        <mxCell id="lKGdMeGp3mjDYcfHsTkI-12" value="还是和前面for循环获取第一个词一样的步骤，创建到一个wordMap，因为已经到结尾了，所以isEnd=1" style="text;html=1;align=center;verticalAlign=middle;resizable=0;points=[];autosize=1;strokeColor=none;fillColor=none;" vertex="1" parent="1">
          <mxGeometry x="977" y="610" width="560" height="30" as="geometry" />
        </mxCell>
        <mxCell id="lKGdMeGp3mjDYcfHsTkI-14" value="然后就在curmap中继续添加一个key为毒，value为worldMap的值，这样子就有多层map了" style="text;html=1;align=center;verticalAlign=middle;resizable=0;points=[];autosize=1;strokeColor=none;fillColor=none;" vertex="1" parent="1">
          <mxGeometry x="164" y="620" width="500" height="30" as="geometry" />
        </mxCell>
      </root>
    </mxGraphModel>
  </diagram>
</mxfile>
